# Blender v2.79 (sub 0) OBJ File: ''
# www.blender.org
o Cylinder
v -0.025175 -0.077096 -1.011830
v 0.025176 0.077096 -1.011830
v 0.457830 -0.077096 -0.893903
v 0.488896 0.077096 -0.877298
v 0.827319 -0.077096 -0.583076
v 0.855293 0.077096 -0.541210
v 0.997610 -0.077096 -0.115954
v 1.001063 0.077096 -0.080898
v 0.966045 -0.077096 0.274641
v 0.955820 0.077096 0.308349
v 0.733274 -0.077096 0.697670
v 0.765062 0.077096 0.650654
v 0.382683 -0.077096 0.923880
v 0.457830 0.077096 0.893903
v 0.025175 -0.077096 1.011830
v -0.025176 0.077096 1.011830
v -0.457831 -0.077096 0.893902
v -0.488897 0.077096 0.877297
v -0.765062 -0.077096 0.650654
v -0.787409 0.077096 0.623425
v -0.955820 -0.077096 0.308349
v -0.966045 0.077096 0.274641
v -0.997300 -0.077096 -0.172707
v -0.997610 0.077096 -0.115955
v -0.827319 0.077096 -0.583077
v -0.787408 -0.077096 -0.623426
v -0.488895 -0.077096 -0.877298
v -0.457829 0.077096 -0.893903
vn 0.2783 0.0472 -0.9593
vn 0.5394 -0.1004 0.8360
vn -0.8996 -0.1232 -0.4189
vn 0.6740 0.0772 -0.7347
vn 0.9523 0.0472 -0.3016
vn 0.9925 0.0406 0.1154
vn 0.8756 -0.0336 0.4818
vn 0.2382 0.0778 0.9681
vn 0.6169 0.1104 0.7792
vn -0.2783 0.0472 0.9593
vn -0.6473 0.0406 0.7611
vn -0.8893 0.0406 0.4555
vn -0.9957 -0.0336 0.0859
vn -0.6471 0.0484 -0.7609
vn -0.9324 0.1232 -0.3399
vn 0.0000 1.0000 0.0000
vn -0.2365 0.0772 -0.9686
vn 0.0000 -1.0000 0.0000
vn 0.2365 -0.0772 -0.9686
vn 0.6430 -0.0472 -0.7644
vn 0.9367 -0.0772 -0.3415
vn 0.9959 -0.0406 0.0805
vn 0.8725 -0.0484 0.4862
vn 0.2366 0.0731 0.9689
vn -0.2365 -0.0772 0.9686
vn -0.6202 -0.0406 0.7834
vn -0.8728 -0.0406 0.4864
vn -0.9956 -0.0484 0.0805
vn -0.6434 0.0336 -0.7648
vn -0.2783 -0.0472 -0.9593
s off
f 3//1 2//1 4//1
f 14//2 13//2 11//2
f 25//3 26//3 23//3
f 5//4 4//4 6//4
f 7//5 6//5 8//5
f 9//6 8//6 10//6
f 9//7 12//7 11//7
f 13//8 16//8 15//8
f 12//9 14//9 11//9
f 17//10 16//10 18//10
f 19//11 18//11 20//11
f 21//12 20//12 22//12
f 21//13 24//13 23//13
f 26//14 28//14 27//14
f 24//15 25//15 23//15
f 12//16 4//16 24//16
f 1//17 28//17 2//17
f 27//18 3//18 13//18
f 3//19 1//19 2//19
f 5//20 3//20 4//20
f 7//21 5//21 6//21
f 9//22 7//22 8//22
f 9//23 10//23 12//23
f 13//24 14//24 16//24
f 17//25 15//25 16//25
f 19//26 17//26 18//26
f 21//27 19//27 20//27
f 21//28 22//28 24//28
f 26//29 25//29 28//29
f 20//16 18//16 12//16
f 18//16 16//16 14//16
f 12//16 18//16 14//16
f 12//16 10//16 4//16
f 10//16 8//16 4//16
f 8//16 6//16 4//16
f 4//16 2//16 28//16
f 28//16 25//16 24//16
f 24//16 22//16 12//16
f 22//16 20//16 12//16
f 4//16 28//16 24//16
f 1//30 27//30 28//30
f 13//18 15//18 17//18
f 17//18 19//18 13//18
f 19//18 21//18 13//18
f 21//18 23//18 26//18
f 26//18 27//18 13//18
f 27//18 1//18 3//18
f 3//18 5//18 7//18
f 13//18 7//18 9//18
f 3//18 7//18 13//18
f 9//18 11//18 13//18
f 21//18 26//18 13//18
