# Blender v2.79 (sub 0) OBJ File: ''
# www.blender.org
mtllib torch.mtl
o torch_Circle.002
v 0.115249 0.095754 -0.019363
v -0.022397 0.095754 -0.076378
v 0.146127 1.562759 -0.050241
v 0.115250 0.095754 0.255930
v -0.022397 2.826458 0.397707
v -0.022397 0.095754 0.312945
v -0.250481 4.392454 0.346370
v -0.022397 3.098162 0.402317
v -0.022397 4.392454 0.440845
v 0.165715 -0.881569 0.306395
v 0.172265 0.095754 0.118284
v -0.022398 -0.881569 0.384314
v -0.160044 0.095754 0.255930
v -0.210509 -0.881569 0.306395
v -0.217059 0.095754 0.118284
v -0.288428 -0.881569 0.118284
v -0.022397 -0.881569 -0.147748
v -0.160044 0.095754 -0.019364
v 0.165715 -0.881569 -0.069829
v 0.243634 -0.881569 0.118283
v -0.210509 -0.881569 -0.069829
v 0.057367 -1.251367 0.038519
v -0.022398 -1.251367 0.005480
v -0.135200 -1.251367 0.118283
v -0.022397 -1.251367 0.231086
v 0.057367 -1.251367 0.198047
v -0.102161 -1.251367 0.038519
v -0.102161 -1.251367 0.198047
v 0.090406 -1.251367 0.118284
v 0.552349 6.223835 0.118287
v 0.370050 4.832689 0.510732
v 0.532606 4.832689 0.118286
v -0.414843 4.832689 -0.274161
v -0.022397 4.242774 -0.273446
v -0.299392 4.242774 -0.158710
v -0.414843 4.832689 0.510732
v -0.414128 4.242774 0.118286
v -0.299392 4.242774 0.395281
v -0.022397 4.242774 0.510017
v 0.369335 4.242774 0.118286
v 0.254599 4.242774 0.395281
v -0.022397 4.832689 -0.436717
v 0.254599 4.242774 -0.158710
v -0.577399 4.832689 0.118286
v -0.022397 4.832689 0.673288
v 0.370050 4.832689 -0.274160
v -0.297455 6.919407 0.393344
v -0.597142 6.223835 0.118287
v -0.428804 6.223835 0.524693
v 0.384009 6.223835 -0.288120
v -0.428803 6.223835 -0.288121
v 0.384010 6.223835 0.524693
v -0.022397 6.223835 -0.456459
v -0.022397 6.223835 0.693032
v -0.022397 6.919407 0.507277
v 0.252661 6.919407 0.393344
v -0.022397 6.919407 -0.270704
v -0.411387 6.919407 0.118286
v 0.252661 6.919407 -0.156771
v -0.022397 3.822587 0.118286
v -0.022397 7.010325 0.118286
v 0.366593 6.919407 0.118287
v -0.297454 6.919407 -0.156771
v 0.300897 1.680151 0.007051
v 0.215932 1.562759 0.118283
v 0.300163 4.392454 0.118286
v 0.192066 3.745308 -0.096177
v 0.205688 4.392454 -0.109799
v 0.222756 1.791979 0.118283
v 0.246917 1.781363 -0.021645
v 0.150952 1.791979 -0.055065
v 0.332762 3.650384 -0.117124
v 0.186213 3.467226 -0.090324
v 0.272622 3.467226 0.118286
v -0.284517 2.362007 0.118283
v -0.207753 2.362423 -0.067073
v 0.205688 4.392454 0.346370
v -0.217510 2.826014 0.313397
v -0.292356 2.625343 0.118283
v 0.267707 1.698390 -0.055593
v 0.281057 1.762602 0.042792
v -0.116190 3.074889 0.458601
v -0.219467 2.967242 0.447273
v -0.135428 2.961909 0.483780
v 0.311312 3.765042 -0.088399
v 0.366950 3.633153 -0.027455
v -0.223239 3.098162 0.319127
v 0.280900 3.745308 0.118286
v 0.346460 3.747326 0.003786
v -0.202624 3.080925 0.422486
v -0.381516 2.465557 0.016008
v -0.344056 2.465760 -0.074442
v -0.022397 4.392454 -0.204274
v -0.213422 2.631794 -0.072742
v -0.344956 4.392454 0.118286
v -0.250481 4.392454 -0.109799
v -0.385341 2.594060 0.016008
v -0.346823 2.597208 -0.077209
v -0.022397 -1.291003 0.118283
vt 0.244700 0.765900
vt 0.244700 0.736200
vt 0.500500 0.765900
vt 0.244700 0.831300
vt 0.726300 0.865000
vt 0.244700 0.865000
vt 0.994900 0.900200
vt 0.773900 0.865000
vt 0.994900 0.865000
vt 0.071600 0.831300
vt 0.244700 0.798000
vt 0.071600 0.865000
vt 0.244700 0.900200
vt 0.071600 0.900200
vt 0.244700 0.932000
vt 0.071600 0.932000
vt 0.071600 0.993800
vt 0.244700 0.964000
vt 0.244700 0.993800
vt 0.071600 0.765900
vt 0.071600 0.798000
vt 0.071600 0.964000
vt 0.071600 0.736200
vt 0.005100 0.765900
vt 0.005100 0.736200
vt 0.005100 0.932000
vt 0.005100 0.865000
vt 0.005100 0.831300
vt 0.005100 0.993800
vt 0.005100 0.964000
vt 0.005100 0.900200
vt 0.005100 0.798000
vt 0.385600 0.187200
vt 0.474800 0.499100
vt 0.385600 0.499100
vt 0.118000 0.499100
vt 0.207200 0.636400
vt 0.118000 0.636400
vt 0.653200 0.499100
vt 0.742400 0.636400
vt 0.653200 0.636400
vt 0.564000 0.636400
vt 0.385600 0.636400
vt 0.474800 0.636400
vt 0.207200 0.499100
vt 0.296400 0.636400
vt 0.028800 0.499100
vt 0.028800 0.636400
vt 0.564000 0.499100
vt 0.296400 0.499100
vt 0.653200 0.025800
vt 0.742400 0.187200
vt 0.653200 0.187200
vt 0.296400 0.187200
vt 0.118000 0.187200
vt 0.474800 0.187200
vt 0.207200 0.187200
vt 0.742400 0.499100
vt 0.564000 0.187200
vt 0.564000 0.025800
vt 0.474800 0.025800
vt 0.207200 0.025800
vt 0.028800 0.025800
vt 0.028800 0.187200
vt 0.296400 0.025800
vt 0.964900 0.087300
vt 0.964900 0.174300
vt 0.859900 0.130800
vt 0.903400 0.235800
vt 0.816400 0.235800
vt 0.754900 0.174300
vt 0.754900 0.087300
vt 0.816400 0.025800
vt 0.903400 0.025800
vt 0.866500 0.248300
vt 0.912700 0.294600
vt 0.833800 0.327200
vt 0.912700 0.359900
vt 0.866500 0.406100
vt 0.801100 0.406100
vt 0.754900 0.359900
vt 0.754900 0.294600
vt 0.801100 0.248300
vt 0.892000 0.538800
vt 0.928800 0.562300
vt 0.894400 0.583400
vt 0.994900 0.798000
vt 0.881900 0.765900
vt 0.994900 0.765900
vt 0.966800 0.577500
vt 0.949300 0.548400
vt 0.966800 0.534700
vt 0.836800 0.523200
vt 0.829700 0.555900
vt 0.777700 0.550100
vt 0.833300 0.798000
vt 0.540700 0.765900
vt 0.833300 0.765900
vt 0.500500 0.798000
vt 0.644300 0.932000
vt 0.644300 0.964000
vt 0.994900 0.831300
vt 0.540700 0.798000
vt 0.726300 0.900200
vt 0.691100 0.932000
vt 0.930500 0.550100
vt 0.946800 0.568300
vt 0.948600 0.651000
vt 0.924300 0.671600
vt 0.923700 0.655200
vt 0.853700 0.549700
vt 0.828900 0.573100
vt 0.969500 0.687200
vt 0.969500 0.637400
vt 0.850600 0.609600
vt 0.854700 0.576200
vt 0.948500 0.622900
vt 0.885300 0.634700
vt 0.785100 0.604400
vt 0.946600 0.702000
vt 0.949100 0.675100
vt 0.943400 0.523200
vt 0.878600 0.539600
vt 0.947800 0.593700
vt 0.884200 0.687400
vt 0.870900 0.645300
vt 0.835800 0.678400
vt 0.835800 0.660000
vt 0.994900 0.993800
vt 0.691100 0.964000
vt 0.994900 0.932000
vt 0.994900 0.964000
vt 0.807600 0.681400
vt 0.807300 0.656300
vt 0.777700 0.646600
vt 0.778000 0.693900
vt 0.812000 0.715700
vt 0.870900 0.695300
vt 0.811300 0.622900
vt 0.903500 0.460500
vt 0.918500 0.445600
vt 0.929000 0.471100
vt 0.939600 0.445600
vt 0.954600 0.460500
vt 0.954600 0.481700
vt 0.939600 0.496600
vt 0.918500 0.496600
vt 0.903500 0.481700
vt 0.881900 0.798000
vt 0.994900 0.736200
vt 0.773900 0.900200
vt 0.742400 0.025800
vt 0.385600 0.025800
vt 0.118000 0.025800
vt 0.878600 0.592700
vn 0.7069 0.0218 -0.7069
vn 0.0000 0.0218 -0.9998
vn 0.5903 -0.1802 -0.7868
vn 0.7069 0.0234 0.7069
vn 0.1250 -0.1648 0.9784
vn -0.0002 0.0215 0.9998
vn -0.7068 -0.0298 0.7068
vn 0.1827 0.1487 0.9719
vn -0.0000 -0.0298 0.9996
vn 0.6990 -0.1511 0.6990
vn 0.9998 0.0218 -0.0000
vn -0.0000 -0.1511 0.9885
vn -0.7069 0.0218 0.7069
vn -0.6990 -0.1511 0.6990
vn -0.9998 0.0218 0.0000
vn -0.9885 -0.1511 0.0000
vn 0.0000 -0.1511 -0.9885
vn -0.7069 0.0218 -0.7069
vn 0.6990 -0.1511 -0.6990
vn 0.9885 -0.1511 -0.0000
vn -0.6990 -0.1511 -0.6990
vn 0.5189 -0.6793 -0.5189
vn -0.0000 -0.6793 -0.7339
vn -0.7339 -0.6793 -0.0000
vn 0.0000 -0.6793 0.7339
vn 0.5189 -0.6793 0.5189
vn -0.5189 -0.6793 -0.5189
vn -0.5189 -0.6793 0.5189
vn 0.7339 -0.6793 0.0000
vn 0.9929 0.1192 -0.0000
vn 0.7004 -0.1375 0.7004
vn 0.9905 -0.1375 -0.0000
vn -0.7004 -0.1375 -0.7004
vn -0.0000 -0.4651 -0.8853
vn -0.6260 -0.4651 -0.6260
vn -0.7004 -0.1375 0.7004
vn -0.8853 -0.4651 0.0000
vn -0.6260 -0.4651 0.6260
vn -0.0000 -0.4651 0.8853
vn 0.8853 -0.4651 0.0000
vn 0.6260 -0.4651 0.6260
vn 0.0000 -0.1375 -0.9905
vn 0.6260 -0.4651 -0.6260
vn -0.9905 -0.1375 0.0000
vn -0.0000 -0.1375 0.9905
vn 0.7004 -0.1375 -0.7004
vn -0.5312 0.6600 0.5312
vn -0.9929 0.1192 0.0000
vn -0.7021 0.1192 0.7021
vn 0.7021 0.1192 -0.7021
vn -0.7021 0.1192 -0.7021
vn 0.7021 0.1192 0.7021
vn 0.0000 0.1192 -0.9929
vn 0.0000 0.1192 0.9929
vn 0.0000 0.6600 0.7512
vn 0.5312 0.6600 0.5312
vn 0.0000 0.6600 -0.7512
vn -0.7512 0.6600 -0.0000
vn 0.5312 0.6600 -0.5312
vn -0.0000 -1.0000 0.0000
vn -0.0000 1.0000 0.0000
vn 0.7512 0.6600 0.0000
vn -0.5312 0.6600 -0.5312
vn 0.9755 -0.2047 -0.0804
vn 0.9762 -0.1696 0.1352
vn 0.9996 -0.0298 0.0000
vn 0.4185 0.1996 -0.8860
vn 0.7068 -0.0298 -0.7068
vn 0.9618 0.1469 0.2312
vn 0.5090 0.7467 -0.4282
vn 0.5032 0.1640 -0.8485
vn 0.5723 -0.0950 -0.8145
vn 0.6000 -0.1802 -0.7794
vn 0.9816 -0.1515 0.1158
vn -0.9696 -0.1881 0.1567
vn -0.5691 -0.1972 -0.7983
vn 0.7055 -0.0276 0.7081
vn -0.7854 -0.1713 0.5949
vn -0.9555 0.1615 0.2468
vn 0.5980 -0.0276 -0.8010
vn 0.8691 0.4589 0.1848
vn 0.0589 0.5999 0.7979
vn -0.7601 -0.1557 0.6309
vn -0.0055 -0.1893 0.9819
vn 0.3483 0.8134 -0.4659
vn 0.9781 -0.2049 -0.0366
vn -0.8442 0.1603 0.5116
vn 0.9622 0.1294 0.2397
vn 0.7276 0.6675 0.1580
vn -0.5500 0.6661 0.5037
vn -0.9316 -0.3501 0.0977
vn -0.5584 -0.3484 -0.7529
vn -0.0000 -0.0298 -0.9996
vn -0.5037 0.1742 -0.8461
vn -0.9996 -0.0298 0.0000
vn -0.7068 -0.0298 -0.7068
vn -0.8649 0.4875 0.1194
vn -0.5078 0.4973 -0.7034
usemtl torch
s 1
f 1/1/1 2/2/2 3/3/3
f 4/4/4 5/5/5 6/6/6
f 7/7/7 8/8/8 9/9/9
f 10/10/10 11/11/11 4/4/4
f 12/12/12 13/13/13 14/14/14
f 14/14/14 15/15/15 16/16/16
f 17/17/17 18/18/18 2/19/2
f 19/20/19 11/11/11 20/21/20
f 10/10/10 6/6/6 12/12/12
f 21/22/21 15/15/15 18/18/18
f 17/23/17 1/1/1 19/20/19
f 17/23/17 22/24/22 23/25/23
f 21/22/21 24/26/24 16/16/16
f 10/10/10 25/27/25 26/28/26
f 20/21/20 22/24/22 19/20/19
f 21/22/21 23/29/23 27/30/27
f 16/16/16 28/31/28 14/14/14
f 12/12/12 28/31/28 25/27/25
f 10/10/10 29/32/29 20/21/20
f 30/33/30 31/34/31 32/35/32
f 33/36/33 34/37/34 35/38/35
f 36/39/36 37/40/37 38/41/38
f 39/42/39 36/39/36 38/41/38
f 40/43/40 31/34/31 41/44/41
f 42/45/42 43/46/43 34/37/34
f 44/47/44 35/38/35 37/48/37
f 41/44/41 45/49/45 39/42/39
f 46/50/46 40/43/40 43/46/43
f 47/51/47 48/52/48 49/53/49
f 42/45/42 50/54/50 46/50/46
f 44/47/44 51/55/51 33/36/33
f 52/56/52 45/49/45 31/34/31
f 50/54/50 32/35/32 46/50/46
f 33/36/33 53/57/53 42/45/42
f 49/53/49 44/58/44 36/39/36
f 54/59/54 36/39/36 45/49/45
f 55/60/55 49/53/49 54/59/54
f 30/33/30 56/61/56 52/56/52
f 57/62/57 50/54/50 53/57/53
f 58/63/58 51/55/51 48/64/48
f 56/61/56 54/59/54 52/56/52
f 59/65/59 30/33/30 50/54/50
f 51/55/51 57/62/57 53/57/53
f 37/66/37 35/67/35 60/68/60
f 35/67/35 34/69/34 60/68/60
f 34/69/34 43/70/43 60/68/60
f 43/70/43 40/71/40 60/68/60
f 40/71/40 41/72/41 60/68/60
f 41/72/41 39/73/39 60/68/60
f 39/73/39 38/74/38 60/68/60
f 38/74/38 37/66/37 60/68/60
f 58/75/58 47/76/47 61/77/61
f 47/76/47 55/78/55 61/77/61
f 55/78/55 56/79/56 61/77/61
f 56/79/56 62/80/62 61/77/61
f 62/80/62 59/81/59 61/77/61
f 59/81/59 57/82/57 61/77/61
f 57/82/57 63/83/63 61/77/61
f 63/83/63 58/75/58 61/77/61
f 3/84/3 64/85/64 65/86/65
f 66/87/66 67/88/67 68/89/68
f 69/90/69 70/91/70 71/92/71
f 67/93/67 72/94/72 73/95/73
f 74/96/74 71/97/71 73/98/73
f 1/1/1 65/99/65 11/11/11
f 18/18/18 75/100/75 76/101/76
f 74/96/74 77/102/77 69/103/69
f 6/6/6 78/104/78 13/13/13
f 75/100/75 78/104/78 79/105/79
f 80/106/80 81/107/81 64/85/64
f 82/108/82 83/109/83 84/110/84
f 85/111/85 86/112/86 72/94/72
f 87/113/87 82/108/82 8/114/8
f 88/115/88 86/112/86 89/116/89
f 8/117/8 84/110/84 5/118/5
f 73/95/73 86/112/86 74/119/74
f 87/120/87 83/109/83 90/121/90
f 71/122/71 80/106/80 3/84/3
f 67/123/67 89/116/89 85/111/85
f 65/86/65 81/107/81 69/124/69
f 78/125/78 84/110/84 83/109/83
f 76/126/76 91/127/91 92/128/92
f 76/101/76 93/129/93 2/19/2
f 94/130/94 95/131/95 96/132/96
f 92/128/92 97/133/97 98/134/98
f 94/135/94 97/133/97 79/136/79
f 79/137/79 91/127/91 75/138/75
f 94/139/94 92/128/92 98/134/98
f 24/140/24 27/141/27 99/142/60
f 27/141/27 23/143/23 99/142/60
f 23/143/23 22/144/22 99/142/60
f 22/144/22 29/145/29 99/142/60
f 29/145/29 26/146/26 99/142/60
f 26/146/26 25/147/25 99/142/60
f 25/147/25 28/148/28 99/142/60
f 28/148/28 24/140/24 99/142/60
f 5/5/5 77/102/77 8/8/8
f 8/8/8 77/102/77 9/9/9
f 77/102/77 88/149/88 66/87/66
f 69/103/69 4/4/4 65/99/65
f 77/102/77 74/96/74 88/149/88
f 65/99/65 4/4/4 11/11/11
f 3/3/3 2/2/2 71/97/71
f 71/97/71 2/2/2 93/150/93
f 93/150/93 68/89/68 67/88/67
f 67/88/67 73/98/73 93/150/93
f 93/150/93 73/98/73 71/97/71
f 93/129/93 76/101/76 94/130/94
f 18/18/18 76/101/76 2/19/2
f 94/130/94 96/132/96 93/129/93
f 95/131/95 79/105/79 87/151/87
f 75/100/75 15/15/15 13/13/13
f 78/104/78 87/151/87 79/105/79
f 75/100/75 13/13/13 78/104/78
f 7/7/7 95/131/95 87/151/87
f 7/7/7 87/151/87 8/8/8
f 10/10/10 20/21/20 11/11/11
f 12/12/12 6/6/6 13/13/13
f 14/14/14 13/13/13 15/15/15
f 17/17/17 21/22/21 18/18/18
f 19/20/19 1/1/1 11/11/11
f 10/10/10 4/4/4 6/6/6
f 21/22/21 16/16/16 15/15/15
f 17/23/17 2/2/2 1/1/1
f 17/23/17 19/20/19 22/24/22
f 21/22/21 27/30/27 24/26/24
f 10/10/10 12/12/12 25/27/25
f 20/21/20 29/32/29 22/24/22
f 21/22/21 17/17/17 23/29/23
f 16/16/16 24/26/24 28/31/28
f 12/12/12 14/14/14 28/31/28
f 10/10/10 26/28/26 29/32/29
f 30/33/30 52/56/52 31/34/31
f 33/36/33 42/45/42 34/37/34
f 36/39/36 44/58/44 37/40/37
f 39/42/39 45/49/45 36/39/36
f 40/43/40 32/35/32 31/34/31
f 42/45/42 46/50/46 43/46/43
f 44/47/44 33/36/33 35/38/35
f 41/44/41 31/34/31 45/49/45
f 46/50/46 32/35/32 40/43/40
f 47/51/47 58/152/58 48/52/48
f 42/45/42 53/57/53 50/54/50
f 44/47/44 48/64/48 51/55/51
f 52/56/52 54/59/54 45/49/45
f 50/54/50 30/33/30 32/35/32
f 33/36/33 51/55/51 53/57/53
f 49/53/49 48/52/48 44/58/44
f 54/59/54 49/53/49 36/39/36
f 55/60/55 47/51/47 49/53/49
f 30/33/30 62/153/62 56/61/56
f 57/62/57 59/65/59 50/54/50
f 58/63/58 63/154/63 51/55/51
f 56/61/56 55/60/55 54/59/54
f 59/65/59 62/153/62 30/33/30
f 51/55/51 63/154/63 57/62/57
f 3/84/3 80/106/80 64/85/64
f 66/87/66 88/149/88 67/88/67
f 69/90/69 81/107/81 70/91/70
f 67/93/67 85/111/85 72/94/72
f 74/96/74 69/103/69 71/97/71
f 1/1/1 3/3/3 65/99/65
f 18/18/18 15/15/15 75/100/75
f 6/6/6 5/5/5 78/104/78
f 80/106/80 70/91/70 81/107/81
f 82/108/82 90/121/90 83/109/83
f 85/111/85 89/116/89 86/112/86
f 87/113/87 90/121/90 82/108/82
f 88/115/88 74/119/74 86/112/86
f 8/117/8 82/108/82 84/110/84
f 73/95/73 72/94/72 86/112/86
f 87/120/87 78/125/78 83/109/83
f 71/122/71 70/91/70 80/106/80
f 67/123/67 88/155/88 89/116/89
f 65/86/65 64/85/64 81/107/81
f 78/125/78 5/118/5 84/110/84
f 76/126/76 75/138/75 91/127/91
f 94/130/94 79/105/79 95/131/95
f 92/128/92 91/127/91 97/133/97
f 94/135/94 98/134/98 97/133/97
f 79/137/79 97/133/97 91/127/91
f 94/139/94 76/126/76 92/128/92
f 5/5/5 4/4/4 77/102/77
f 69/103/69 77/102/77 4/4/4
