# Blender v2.79 (sub 0) OBJ File: ''
# www.blender.org
mtllib Banner.mtl
o pCube4234_Untitled
v -0.002329 0.068291 0.033236
v 0.570812 0.935508 0.033236
v 0.570812 4.633937 0.033237
v -0.002329 4.633937 0.033237
v -0.575470 4.633937 0.033237
v -0.575470 0.935508 0.033236
v -0.002329 -0.003896 0.033236
v 0.630311 0.917040 0.033236
v 0.630311 4.693438 0.033237
v -0.002329 4.693438 0.033237
v -0.634969 4.693438 0.033237
v -0.634969 0.917040 0.033236
v -0.219537 4.680975 0.026978
v -0.236549 4.697986 0.026978
v -0.236549 4.697987 -0.053640
v -0.219537 4.680975 -0.053640
v -0.202528 4.697986 0.026978
v -0.202528 4.697987 -0.053640
v -0.219537 4.714996 0.026978
v -0.219537 4.714996 -0.053640
v -0.650079 4.680975 0.026978
v -0.667091 4.697986 0.026978
v -0.667091 4.697987 -0.053640
v -0.650079 4.680975 -0.053640
v -0.633070 4.697986 0.026978
v -0.633070 4.697987 -0.053640
v -0.650079 4.714996 0.026978
v -0.650079 4.714996 -0.053640
v 0.653442 4.680975 0.026978
v 0.636431 4.697986 0.026978
v 0.636431 4.697987 -0.053640
v 0.653442 4.680975 -0.053640
v 0.670452 4.697986 0.026978
v 0.670452 4.697987 -0.053640
v 0.653442 4.714996 0.026978
v 0.653442 4.714996 -0.053640
v 0.685891 4.717503 0.053643
v -0.685891 4.717503 0.053643
v -0.685891 4.678469 0.053643
v 0.685891 4.678469 0.053643
v -0.685891 4.678469 0.014607
v 0.685891 4.678469 0.014607
v -0.685891 4.717503 0.014607
v 0.685891 4.717503 0.014607
v 0.222900 4.680975 0.026978
v 0.205889 4.697986 0.026978
v 0.205889 4.697987 -0.053640
v 0.222900 4.680975 -0.053640
v 0.239910 4.697986 0.026978
v 0.239910 4.697987 -0.053640
v 0.222900 4.714996 0.026978
v 0.222900 4.714996 -0.053640
vt 0.468750 0.688440
vt 0.406250 0.688440
vt 0.406250 0.312500
vt 0.468750 0.312500
vt 0.531250 0.688440
vt 0.531250 0.312500
vt 0.593750 0.688440
vt 0.593750 0.312500
vt 0.468750 0.688440
vt 0.406250 0.688440
vt 0.406250 0.312500
vt 0.468750 0.312500
vt 0.531250 0.688440
vt 0.531250 0.312500
vt 0.593750 0.688440
vt 0.593750 0.312500
vt 0.468750 0.688440
vt 0.406250 0.688440
vt 0.406250 0.312500
vt 0.468750 0.312500
vt 0.531250 0.688440
vt 0.531250 0.312500
vt 0.593750 0.688440
vt 0.593750 0.312500
vt 0.375000 0.688440
vt 0.375000 0.312500
vt 0.437500 0.312500
vt 0.437500 0.688440
vt 0.500000 0.312500
vt 0.500000 0.688440
vt 0.562500 0.312500
vt 0.562500 0.688440
vt 0.625000 0.312500
vt 0.625000 0.688440
vt 0.389515 0.266735
vt 0.389515 0.045765
vt 0.610485 0.045765
vt 0.610485 0.266735
vt 0.610485 0.733265
vt 0.610485 0.954235
vt 0.389515 0.954235
vt 0.389515 0.733265
vt 0.468750 0.688440
vt 0.406250 0.688440
vt 0.406250 0.312500
vt 0.468750 0.312500
vt 0.531250 0.688440
vt 0.531250 0.312500
vt 0.593750 0.688440
vt 0.593750 0.312500
vt 0.500000 -0.184795
vt 0.666185 0.083720
vt 0.666185 1.184795
vt 0.500000 1.184795
vt 0.333815 1.184795
vt 0.333815 0.083720
vt 0.085858 0.509230
vt 0.085858 0.519897
vt 0.085858 0.520111
vt 0.085858 0.510066
vt 0.085858 0.563640
vt 0.085858 0.562951
vt 0.085858 0.563640
vt 0.085858 0.562951
vt 0.085858 0.563640
vt 0.085858 0.519897
vt 0.085858 0.520111
vt 0.085858 0.562951
vn -0.7071 -0.7071 0.0000
vn 0.7072 -0.7071 0.0000
vn 0.7071 0.7071 0.0000
vn -0.7071 0.7072 0.0000
vn 0.7071 -0.7071 0.0000
vn -0.7071 0.7071 0.0000
vn 0.0000 -0.0000 1.0000
vn 0.0000 -1.0000 0.0000
vn 0.0000 0.0000 -1.0000
vn 0.0000 1.0000 0.0000
vn -1.0000 0.0000 0.0000
vn 1.0000 0.0000 0.0000
usemtl BannerTop
s 1
f 13/1/1 14/2/1 15/3/1 16/4/1
f 17/5/2 13/1/2 16/4/2 18/6/2
f 19/7/3 17/5/3 18/6/3 20/8/3
f 14/2/4 19/7/4 20/8/4 15/3/4
f 21/9/1 22/10/1 23/11/1 24/12/1
f 25/13/2 21/9/2 24/12/2 26/14/2
f 27/15/3 25/13/3 26/14/3 28/16/3
f 22/10/4 27/15/4 28/16/4 23/11/4
f 29/17/1 30/18/1 31/19/1 32/20/1
f 33/21/5 29/17/5 32/20/5 34/22/5
f 35/23/3 33/21/3 34/22/3 36/24/3
f 30/18/6 35/23/6 36/24/6 31/19/6
f 37/25/7 38/26/7 39/27/7 40/28/7
f 40/28/8 39/27/8 41/29/8 42/30/8
f 42/30/9 41/29/9 43/31/9 44/32/9
f 44/32/10 43/31/10 38/33/10 37/34/10
f 41/35/11 39/36/11 38/37/11 43/38/11
f 44/39/12 37/40/12 40/41/12 42/42/12
f 45/43/1 46/44/1 47/45/1 48/46/1
f 49/47/5 45/43/5 48/46/5 50/48/5
f 51/49/3 49/47/3 50/48/3 52/50/3
f 46/44/6 51/49/6 52/50/6 47/45/6
usemtl BannerFlag
f 1/51/7 2/52/7 3/53/7 4/54/7
f 5/55/7 6/56/7 1/51/7 4/54/7
f 7/57/7 8/58/7 2/59/7 1/60/7
f 8/58/7 9/61/7 3/62/7 2/59/7
f 9/61/7 10/63/7 4/64/7 3/62/7
f 11/65/7 12/66/7 6/67/7 5/68/7
f 12/66/7 7/57/7 1/60/7 6/67/7
f 10/63/7 11/65/7 5/68/7 4/64/7
